<?xml version="1.0"?>
<svg width="64" height="64" xmlns="http://www.w3.org/2000/svg" xmlns:svg="http://www.w3.org/2000/svg">
 <g class="layer">
  <title>Layer 1</title>
  <g id="SVGRepo_iconCarrier">
   <path d="m30.05,45.61l-12.2,9.13c-0.58,0.43 -1.26,0.7 -1.98,0.76c-0.72,0.07 -1.45,-0.07 -2.09,-0.4c-0.65,-0.32 -1.19,-0.81 -1.57,-1.43c-0.38,-0.61 -0.58,-1.32 -0.58,-2.04l0,-36.32c0,-2.07 0.82,-4.05 2.28,-5.51c1.46,-1.46 3.44,-2.28 5.5,-2.28l25.94,0c2.06,0 4.04,0.82 5.5,2.28c1.46,1.46 2.28,3.44 2.28,5.51l0,36.32c0,0.72 -0.2,1.43 -0.58,2.04c-0.38,0.61 -0.92,1.11 -1.57,1.43c-0.64,0.33 -1.37,0.46 -2.09,0.4c-0.72,-0.06 -1.4,-0.33 -1.98,-0.76l-12.19,-9.13c-0.68,-0.51 -1.5,-0.78 -2.34,-0.78c-0.84,0 -1.66,0.27 -2.33,0.78l0,0z" fill="#426AB2" id="svg_1" stroke="#426AB2" stroke-linecap="round" stroke-linejoin="round" stroke-width="4"/>
  </g>
 </g>
</svg>